<svg version="1.2" xmlns="http://www.w3.org/2000/svg" viewBox="0 0 270 100" width="270" height="100">
	<title>logo-svg</title>
	<style>
		.s0 { fill: #4b882a } 
		.s1 { fill: #ffc668 } 
		.s2 { fill: #fbfbfb } 
		.s3 { fill: #82a93a } 
		.s4 { fill: #81aa39 } 
	</style>
	<path fill-rule="evenodd" class="s0" d="m114 47.7q-0.8 0-1.3-0.5-0.4-0.5-0.4-1.4v-10.4q0-0.9 0.4-1.4 0.5-0.5 1.3-0.5h4.5q1.4 0 2.3 0.5 1 0.4 1.5 1.2 0.5 0.9 0.5 2 0 1.2-0.6 2.1-0.5 0.7-1.3 1 1 0.3 1.6 1.1 0.7 0.9 0.7 2.3 0 1.8-1.2 2.9-1.2 1.1-3.3 1.1h-4.7zm6.9-7.4q-0.2-0.1-0.5-0.1v0.3q0.3-0.1 0.5-0.2zm-5.4-1.2h2.4q0.9 0 1.3-0.3 0.4-0.4 0.4-1.1 0-0.8-0.4-1.1-0.4-0.4-1.3-0.4h-2.4zm0 5.9h2.7q0.9 0 1.4-0.4 0.4-0.4 0.4-1.2 0-0.8-0.4-1.2-0.5-0.4-1.4-0.4h-2.7z"/>
	<path class="s0" d="m126.8 47.7q-0.8 0-1.3-0.5-0.4-0.5-0.4-1.4v-10.4q0-0.9 0.4-1.4 0.5-0.5 1.3-0.5h6.2q0.7 0 1 0.4 0.3 0.3 0.3 1 0 0.7-0.3 1.1-0.3 0.4-1 0.4h-4.7v2.7h4.3q0.7 0 1 0.3 0.3 0.4 0.3 1.1 0 0.7-0.3 1.1-0.3 0.3-1 0.3h-4.3v2.9h4.7q0.7 0 1 0.4 0.3 0.4 0.3 1.1 0 0.7-0.3 1-0.3 0.4-1 0.4h-6.2z"/>
	<path class="s0" d="m137.8 47.9q-0.7 0-1.1-0.5-0.4-0.4-0.4-1.2v-11.2q0-0.8 0.4-1.2 0.5-0.5 1.2-0.5 0.7 0 1 0.3 0.4 0.3 0.7 0.9l3.9 7.8h-0.6l3.9-7.8q0.3-0.6 0.7-0.9 0.4-0.3 1-0.3 0.7 0 1.1 0.5 0.4 0.4 0.4 1.2v11.2q0 0.8-0.4 1.2-0.3 0.5-1.1 0.5-0.7 0-1.1-0.5-0.4-0.4-0.4-1.2v-6.9h0.4l-2.9 5.6q-0.3 0.4-0.6 0.7-0.3 0.2-0.7 0.2-0.5 0-0.8-0.2-0.3-0.3-0.5-0.7l-3-5.7h0.4v7q0 0.8-0.3 1.2-0.4 0.5-1.2 0.5z"/>
	<path class="s0" d="m153.5 43.7q-0.6 0-0.9-0.4-0.4-0.4-0.4-1 0-0.6 0.4-1 0.3-0.4 0.9-0.4h3.6q0.6 0 0.9 0.4 0.4 0.4 0.4 1 0 0.6-0.4 1-0.3 0.4-0.9 0.4z"/>
	<path class="s0" d="m162.1 47.9q-0.8 0-1.2-0.5-0.3-0.4-0.3-1.2v-11.2q0-0.8 0.4-1.2 0.4-0.5 1.2-0.5 0.6 0 1 0.3 0.3 0.3 0.7 0.9l3.9 7.8h-0.7l3.9-7.8q0.4-0.6 0.7-0.9 0.4-0.3 1.1-0.3 0.7 0 1.1 0.5 0.4 0.4 0.4 1.2v11.2q0 0.8-0.4 1.2-0.4 0.5-1.1 0.5-0.8 0-1.2-0.5-0.4-0.4-0.4-1.2v-6.9h0.4l-2.9 5.6q-0.3 0.4-0.5 0.7-0.3 0.2-0.8 0.2-0.5 0-0.8-0.2-0.2-0.3-0.5-0.7l-2.9-5.7h0.4v7q0 0.8-0.4 1.2-0.4 0.5-1.1 0.5z"/>
	<path class="s0" d="m178.4 47.7q-0.9 0-1.3-0.5-0.5-0.5-0.5-1.4v-10.4q0-0.9 0.5-1.4 0.4-0.5 1.3-0.5h6.2q0.6 0 1 0.4 0.3 0.3 0.3 1 0 0.7-0.3 1.1-0.4 0.4-1 0.4h-4.8v2.7h4.4q0.6 0 0.9 0.3 0.4 0.4 0.4 1.1 0 0.7-0.4 1.1-0.3 0.3-0.9 0.3h-4.4v2.9h4.8q0.6 0 1 0.4 0.3 0.4 0.3 1.1 0 0.7-0.3 1-0.4 0.4-1 0.4h-6.2z"/>
	<path class="s0" d="m188.9 43.7q-0.6 0-1-0.4-0.3-0.4-0.3-1 0-0.6 0.3-1 0.4-0.4 1-0.4h3.6q0.5 0 0.9 0.4 0.3 0.4 0.3 1 0 0.6-0.3 1-0.4 0.4-0.9 0.4z"/>
	<path fill-rule="evenodd" class="s0" d="m198.7 47q-1.5-0.9-2.3-2.6-0.8-1.6-0.8-3.8 0-1.7 0.4-3 0.5-1.4 1.3-2.3 0.9-1 2.1-1.5 1.2-0.5 2.7-0.5 1.9 0 3.4 0.9 1.5 0.9 2.3 2.5 0.8 1.7 0.8 3.9 0 1.6-0.5 3-0.4 1.3-1.3 2.3-0.6 0.7-1.3 1.1 0.2 0.1 0.4 0.2 0.6 0.3 1 1.1l0.7 1.2q0.3 0.6 0.2 1.1-0.1 0.5-0.4 0.8-0.4 0.3-0.9 0.4-0.4 0.1-0.9-0.1-0.5-0.2-0.8-0.7l-1.4-2.4q-0.2-0.4-0.5-0.5-0.3-0.2-0.8-0.2-2 0-3.4-0.9zm3.4 0.9q0 0 0 0zm0-3.1q0.9 0 1.6-0.5 0.7-0.5 1.1-1.4 0.3-1 0.3-2.3 0-2-0.8-3.1-0.8-1.1-2.2-1.1-1 0-1.6 0.5-0.7 0.5-1.1 1.4-0.4 0.9-0.4 2.3 0 2 0.8 3.1 0.8 1.1 2.3 1.1z"/>
	<path class="s0" d="m216.3 47.9q-1.4 0-2.5-0.4-1.1-0.4-1.8-1.2-0.7-0.7-1.1-1.9-0.4-1.2-0.4-2.7v-6.5q0-0.9 0.4-1.4 0.5-0.5 1.3-0.5 0.8 0 1.2 0.5 0.5 0.5 0.5 1.4v6.5q0 1.5 0.6 2.3 0.6 0.8 1.8 0.8 1.2 0 1.8-0.8 0.6-0.8 0.6-2.3v-6.5q0-0.9 0.4-1.4 0.5-0.5 1.3-0.5 0.8 0 1.2 0.5 0.4 0.5 0.4 1.4v6.5q0 2-0.6 3.4-0.7 1.4-2 2.1-1.2 0.7-3.1 0.7z"/>
	<path class="s0" d="m226 47.7q-0.9 0-1.3-0.5-0.5-0.5-0.5-1.4v-10.4q0-0.9 0.5-1.4 0.4-0.5 1.3-0.5h6.2q0.6 0 1 0.4 0.3 0.3 0.3 1 0 0.7-0.3 1.1-0.4 0.4-1 0.4h-4.7v2.7h4.3q0.6 0 1 0.3 0.3 0.4 0.3 1.1 0 0.7-0.3 1.1-0.4 0.3-1 0.3h-4.3v2.9h4.7q0.6 0 1 0.4 0.3 0.4 0.3 1.1 0 0.7-0.3 1-0.4 0.4-1 0.4h-6.2z"/>
	<path fill-rule="evenodd" class="s0" d="m237.1 47.9q-0.8 0-1.2-0.5-0.5-0.5-0.5-1.4v-10.6q0-0.9 0.5-1.4 0.4-0.5 1.2-0.5h4.5q2.2 0 3.4 1.2 1.2 1.2 1.2 3.3 0 1.3-0.5 2.3-0.6 1-1.6 1.5-0.3 0.2-0.7 0.3 0.3 0.1 0.6 0.3 0.6 0.4 1 1.3l0.9 1.8q0.3 0.6 0.3 1.1 0 0.6-0.4 0.9-0.4 0.4-1.1 0.4-0.7 0-1.1-0.4-0.5-0.3-0.8-1l-1.7-3.3q-0.2-0.5-0.5-0.6-0.4-0.2-0.8-0.2h-1v3.6q0 0.9-0.4 1.4-0.4 0.5-1.3 0.5zm6.3-5.8q-0.4-0.1-0.8-0.1h-0.8l-0.2 0.4q1 0 1.8-0.3zm-4.6-2.3h2.2q1 0 1.5-0.4 0.5-0.5 0.5-1.4c0-0.5-0.2-0.9-0.5-1.2q-0.5-0.5-1.5-0.5h-2.2z"/>
	<path class="s1" d="m114 61.8q-0.5 0-0.7-0.3-0.3-0.3-0.3-0.8v-6.9q0-0.6 0.3-0.9 0.2-0.3 0.6-0.3 0.4 0 0.6 0.2 0.2 0.1 0.5 0.5l3.6 5h-0.3v-4.6q0-0.5 0.2-0.8 0.3-0.3 0.8-0.3 0.5 0 0.7 0.3 0.3 0.3 0.3 0.8v7q0 0.5-0.3 0.8-0.2 0.3-0.6 0.3-0.4 0-0.6-0.2-0.2-0.1-0.5-0.5l-3.6-5h0.3v4.6q0 0.5-0.3 0.8-0.2 0.3-0.7 0.3z"/>
	<path class="s1" d="m123.7 61.8q-0.7 0-1.2-0.3-0.5-0.3-0.7-0.9-0.2-0.6-0.2-1.5v-2.6q0-0.6 0.2-0.9 0.3-0.3 0.8-0.3 0.5 0 0.8 0.3 0.2 0.3 0.2 0.9v2.7q0 0.4 0.2 0.7 0.2 0.2 0.5 0.2 0.5 0 0.7-0.3 0.3-0.4 0.3-0.9v-2.4q0-0.6 0.3-0.9 0.2-0.3 0.7-0.3 0.5 0 0.8 0.3 0.2 0.3 0.2 0.9v4.2q0 1.1-1 1.1-0.4 0-0.7-0.3-0.3-0.3-0.3-0.8v-0.8l0.2 0.6q-0.2 0.7-0.7 1-0.4 0.3-1.1 0.3z"/>
	<path class="s1" d="m131.5 61.8q-0.9 0-1.4-0.3-0.6-0.3-0.9-0.9-0.2-0.5-0.2-1.4v-2.1h-0.4q-0.4 0-0.6-0.2-0.2-0.2-0.2-0.6 0-0.4 0.2-0.6 0.2-0.3 0.6-0.3h0.4v-0.7q0-0.6 0.2-0.9 0.3-0.3 0.8-0.3 0.5 0 0.8 0.3 0.2 0.3 0.2 0.9v0.7h1q0.3 0 0.5 0.3 0.2 0.2 0.2 0.6 0 0.4-0.2 0.6-0.2 0.2-0.5 0.2h-1v2q0 0.5 0.2 0.7 0.2 0.2 0.7 0.2 0.1 0 0.3 0 0.1-0.1 0.2-0.1 0.2 0 0.3 0.2 0.2 0.1 0.2 0.6 0 0.3-0.1 0.6-0.1 0.3-0.4 0.4-0.2 0-0.4 0.1-0.3 0-0.5 0z"/>
	<path class="s1" d="m134.5 61.8q-0.5 0-0.8-0.3-0.3-0.3-0.3-0.8v-4.2q0-0.6 0.3-0.9 0.3-0.3 0.7-0.3 0.5 0 0.8 0.3 0.2 0.3 0.2 0.9v0.5h-0.1q0.1-0.8 0.6-1.2 0.5-0.5 1.2-0.5 0.3 0 0.5 0.2 0.2 0.2 0.2 0.7 0 0.5-0.2 0.7-0.2 0.3-0.7 0.4h-0.2q-0.6 0-0.9 0.4-0.3 0.3-0.3 0.9v2.1q0 0.5-0.2 0.8-0.3 0.3-0.8 0.3z"/>
	<path class="s1" d="m139.5 54.4q-0.6 0-0.9-0.3-0.3-0.2-0.3-0.8 0-0.5 0.3-0.8 0.3-0.2 0.9-0.2 0.5 0 0.8 0.2 0.3 0.3 0.3 0.8 0 0.6-0.3 0.8-0.3 0.3-0.8 0.3zm0 7.4q-0.5 0-0.8-0.3-0.3-0.3-0.3-0.9v-4q0-0.6 0.3-1 0.3-0.3 0.8-0.3 0.4 0 0.7 0.3 0.3 0.4 0.3 1v4q0 0.6-0.3 0.9-0.2 0.3-0.7 0.3z"/>
	<path class="s1" d="m142.7 61.8q-0.5 0-0.8-0.3-0.2-0.3-0.2-0.8v-4.2q0-0.6 0.2-0.9 0.3-0.3 0.8-0.3 0.5 0 0.7 0.3 0.3 0.3 0.3 0.9v0.5l-0.2-0.5q0.3-0.6 0.8-0.9 0.5-0.3 1.2-0.3 0.7 0 1.1 0.3 0.5 0.3 0.7 0.9 0.2 0.6 0.2 1.5v2.7q0 0.5-0.3 0.8-0.2 0.3-0.7 0.3-0.5 0-0.8-0.3-0.3-0.3-0.3-0.8v-2.6q0-0.6-0.1-0.8-0.2-0.3-0.6-0.3-0.4 0-0.7 0.4-0.3 0.3-0.3 0.8v2.5q0 1.1-1 1.1z"/>
	<path fill-rule="evenodd" class="s1" d="m150.9 61.8q0 0 0 0 0 0 0 0zm-1.3-0.4q-0.6-0.4-0.9-1.1-0.3-0.7-0.3-1.7 0-1.1 0.3-1.8 0.3-0.7 0.9-1.1 0.5-0.4 1.3-0.4 0.6 0 1.1 0.3 0.4 0.3 0.6 0.6v-2.4q0-0.6 0.2-0.9 0.3-0.3 0.8-0.3 0.5 0 0.7 0.3 0.3 0.3 0.3 0.9v6.9q0 0.5-0.2 0.8-0.3 0.3-0.8 0.3-0.5 0-0.8-0.3-0.2-0.2-0.2-0.6-0.2 0.3-0.6 0.6-0.5 0.3-1.1 0.3-0.8 0-1.3-0.4zm3-5.2v0.3h0.1q-0.1-0.2-0.1-0.3zm0 4.7q0.1-0.2 0.1-0.3l-0.1-0.7v0.8q0 0.1 0 0.2zm-1.1-0.7q0.3 0 0.6-0.2 0.2-0.2 0.4-0.5 0.1-0.4 0.1-0.9 0-0.9-0.3-1.3-0.3-0.3-0.8-0.3-0.3 0-0.5 0.1-0.3 0.2-0.4 0.5-0.1 0.4-0.1 1 0 0.8 0.3 1.2 0.3 0.4 0.7 0.4z"/>
	<path fill-rule="evenodd" class="s1" d="m158.7 61.8q-1 0-1.7-0.4-0.7-0.4-1.1-1.1-0.4-0.7-0.4-1.7 0-0.8 0.2-1.4 0.3-0.6 0.7-1 0.4-0.5 1-0.7 0.5-0.2 1.3-0.2 0.9 0 1.6 0.4 0.7 0.4 1.1 1.1 0.4 0.7 0.4 1.8 0 0.7-0.2 1.3-0.2 0.6-0.7 1.1-0.4 0.4-1 0.6-0.5 0.2-1.2 0.2zm0-1.6q0.3 0 0.5-0.2 0.3-0.2 0.4-0.5 0.1-0.4 0.1-0.9 0-0.9-0.3-1.3-0.3-0.3-0.7-0.3-0.3 0-0.6 0.1-0.2 0.2-0.4 0.5-0.1 0.4-0.1 1 0 0.8 0.3 1.2 0.3 0.4 0.8 0.4z"/>
	<path class="s1" d="m169.2 61.8q-0.5 0-1 0-0.5-0.1-0.9-0.3-0.5-0.1-0.8-0.3-0.3-0.2-0.5-0.4-0.1-0.3-0.1-0.6 0.1-0.3 0.2-0.5 0.2-0.3 0.5-0.4 0.2 0 0.6 0.1 0.4 0.3 0.9 0.4 0.6 0.1 1.1 0.1 0.7 0 1-0.2 0.3-0.2 0.3-0.6 0-0.3-0.2-0.4-0.2-0.2-0.7-0.3l-1.4-0.4q-1.1-0.2-1.6-0.8-0.6-0.7-0.6-1.7 0-0.6 0.3-1.2 0.2-0.5 0.7-0.9 0.5-0.4 1.1-0.6 0.6-0.2 1.4-0.2 0.6 0 1.2 0.1 0.6 0.2 1.1 0.5 0.2 0.1 0.3 0.4 0.2 0.3 0.1 0.5 0 0.3-0.1 0.6-0.2 0.2-0.5 0.2-0.2 0.1-0.6-0.1-0.3-0.1-0.7-0.2-0.5-0.1-0.8-0.1-0.5 0-0.8 0.1-0.3 0.1-0.4 0.3-0.2 0.2-0.2 0.5 0 0.3 0.2 0.4 0.2 0.2 0.8 0.4l1.3 0.3q1.1 0.2 1.7 0.9 0.5 0.6 0.5 1.5 0 0.7-0.2 1.2-0.3 0.6-0.7 0.9-0.5 0.4-1.1 0.6-0.6 0.2-1.4 0.2z"/>
	<path class="s1" d="m175.5 61.8q-0.7 0-1.2-0.2-0.5-0.3-0.7-0.8-0.3-0.4-0.3-1 0-0.7 0.3-1.1 0.3-0.4 1-0.6 0.7-0.1 1.9-0.1h0.7v1h-0.7q-0.4 0-0.7 0.1-0.3 0.1-0.4 0.2-0.2 0.2-0.2 0.4 0 0.3 0.2 0.5 0.2 0.2 0.6 0.2 0.2 0 0.5-0.2 0.2-0.1 0.3-0.4 0.2-0.2 0.2-0.6v-1.4q0-0.5-0.2-0.7-0.3-0.2-0.8-0.2-0.3 0-0.6 0.1-0.3 0.1-0.8 0.3-0.3 0.1-0.5 0-0.2-0.1-0.3-0.3-0.2-0.2-0.2-0.5 0-0.2 0.2-0.5 0.1-0.2 0.4-0.3 0.6-0.3 1.1-0.3 0.4-0.1 0.8-0.1 1 0 1.6 0.3 0.6 0.3 0.9 0.9 0.3 0.6 0.3 1.6v2.6q0 0.5-0.2 0.8-0.3 0.3-0.7 0.3-0.5 0-0.8-0.3-0.2-0.3-0.2-0.8v-0.4l0.1 0.2q-0.1 0.4-0.3 0.7-0.2 0.3-0.5 0.5-0.4 0.1-0.8 0.1z"/>
	<path fill-rule="evenodd" class="s1" d="m183.8 61.8q0 0 0 0 0 0 0 0zm-1.2-0.3q-0.3-0.3-0.5-0.6-0.1 0.4-0.3 0.6-0.2 0.3-0.7 0.3-0.5 0-0.8-0.3-0.2-0.3-0.2-0.8v-6.9q0-0.6 0.2-0.9 0.3-0.3 0.8-0.3 0.5 0 0.7 0.3 0.3 0.3 0.3 0.9v2.4q0.2-0.3 0.6-0.6 0.5-0.3 1.1-0.3 0.7 0 1.3 0.4 0.6 0.4 0.9 1.1 0.3 0.7 0.3 1.8 0 1-0.3 1.7-0.3 0.7-0.9 1.1-0.6 0.4-1.3 0.4-0.7 0-1.2-0.3zm-0.5-0.6q0-0.1 0-0.2v-0.7l-0.1 0.6q0 0.1 0.1 0.3zm0-4.7q-0.1 0.1-0.1 0.3h0.1zm1.1 4q0.3 0 0.5-0.2 0.2-0.2 0.4-0.5 0.1-0.4 0.1-0.9 0-0.9-0.3-1.3-0.3-0.3-0.7-0.3-0.4 0-0.6 0.1-0.2 0.2-0.4 0.5-0.1 0.4-0.1 1 0 0.8 0.3 1.2 0.3 0.4 0.8 0.4z"/>
	<path fill-rule="evenodd" class="s1" d="m190.1 61.8q-1 0-1.7-0.4-0.7-0.4-1.1-1.1-0.4-0.7-0.4-1.7 0-0.8 0.3-1.4 0.2-0.6 0.6-1 0.4-0.5 1-0.7 0.6-0.2 1.3-0.2 0.9 0 1.6 0.4 0.7 0.4 1.1 1.1 0.4 0.7 0.4 1.8 0 0.7-0.2 1.3-0.2 0.6-0.6 1.1-0.5 0.4-1 0.6-0.6 0.2-1.3 0.2zm0-1.6q0.3 0 0.5-0.2 0.3-0.2 0.4-0.5 0.1-0.4 0.1-0.9 0-0.9-0.3-1.3-0.3-0.3-0.7-0.3-0.3 0-0.6 0.1-0.2 0.2-0.4 0.5-0.1 0.4-0.1 1 0 0.8 0.3 1.2 0.3 0.4 0.8 0.4z"/>
	<path class="s1" d="m195.2 61.8q-0.5 0-0.8-0.3-0.3-0.3-0.3-0.8v-4.2q0-0.6 0.3-0.9 0.3-0.3 0.7-0.3 0.5 0 0.8 0.3 0.2 0.3 0.2 0.9v0.5h-0.1q0.1-0.8 0.6-1.2 0.5-0.5 1.2-0.5 0.3 0 0.5 0.2 0.2 0.2 0.2 0.7 0 0.5-0.2 0.7-0.2 0.3-0.6 0.4h-0.3q-0.6 0-0.9 0.4-0.3 0.3-0.3 0.9v2.1q0 0.5-0.2 0.8-0.3 0.3-0.8 0.3z"/>
	<path class="s1" d="m202.1 61.8q-1 0-1.8-0.4-0.7-0.4-1.1-1.1-0.4-0.7-0.4-1.8c0-0.6 0.1-1.2 0.4-1.6q0.3-0.8 1-1.2 0.7-0.4 1.6-0.4 0.6 0 1.1 0.2 0.5 0.2 0.9 0.7 0.4 0.4 0.6 1 0.1 0.6 0.1 1.3 0 0.3-0.1 0.4-0.1 0.1-0.4 0.1h-3.5v-1h2.5l-0.1 0.1q0-0.5-0.2-0.7-0.1-0.3-0.3-0.5-0.2-0.1-0.5-0.1-0.4 0-0.7 0.1-0.2 0.2-0.4 0.6-0.1 0.3-0.1 0.9v0.1q0 0.9 0.4 1.3 0.3 0.4 1.1 0.4 0.2 0 0.6-0.1 0.3-0.1 0.6-0.2 0.3-0.1 0.5 0 0.2 0 0.4 0.2 0.1 0.2 0.1 0.5 0 0.2-0.1 0.5-0.1 0.2-0.4 0.3-0.4 0.2-0.9 0.3-0.4 0.1-0.9 0.1z"/>
	<path class="s1" d="m207.7 61.8q-0.5 0-1-0.1-0.6 0-1-0.3-0.3-0.1-0.4-0.3-0.1-0.2-0.1-0.5 0-0.2 0.1-0.4 0.1-0.2 0.3-0.3 0.2-0.1 0.5 0 0.5 0.2 0.9 0.3 0.3 0.1 0.7 0.1 0.4 0 0.6-0.1 0.2-0.2 0.2-0.4 0-0.2-0.1-0.3-0.1-0.1-0.4-0.1l-1.2-0.2q-0.8-0.2-1.1-0.6-0.4-0.5-0.4-1.2 0-0.6 0.3-1.1 0.3-0.5 0.9-0.7 0.6-0.3 1.4-0.3 0.5 0 0.9 0.1 0.5 0.1 0.9 0.3 0.2 0.1 0.3 0.3 0.1 0.2 0.1 0.5 0 0.2-0.1 0.4-0.2 0.2-0.4 0.3-0.2 0-0.4-0.1-0.4-0.1-0.7-0.2-0.3-0.1-0.6-0.1-0.4 0-0.6 0.2-0.2 0.1-0.2 0.3 0 0.2 0.1 0.3 0.1 0.1 0.3 0.1l1.3 0.3q0.7 0.1 1.1 0.5 0.4 0.4 0.4 1.2 0 1-0.7 1.6-0.7 0.5-1.9 0.5z"/>
	<path class="s2" d="m211.8 62.1c0.7 0.1 0.5 2.1-0.1 2.1h-1.9v-2.1h2z"/>
	<path class="s0" d="m59.3 41.1c-0.2-0.2 0.7-2.2 0.9-2.5 1.6-3.2 4.3-6.4 6.8-8.7 0.4-0.3 1.8-1.3 1.9-1.6 0.1-0.2-0.1-0.1-0.2-0.1-0.6 0.1-1.9 1-2.5 1.4-3.6 2.4-6.3 6.3-7.9 10.6-0.3 0-0.2-0.1-0.2-0.2-1.4-3 1.9-8.9 4-10.9 1.9-1.9 5.1-3.4 7.7-3.7 2.4-0.2 2.5 1.1 1.9 3.3-1.1 4.8-4.5 8.5-8.3 10.9-1.2 0.8-2.7 1.6-4.1 1.5z"/>
	<path class="s3" d="m66 82.7l13.2-24.8c0.6-0.1 1.3 0.1 2.1 0.1 5.3-0.5 7.7-6.5 8.2-11.2 0.9-7.5-2.4-11.5-9.2-6.3-3.9 3-8.4 8.9-5.6 13.9 0.3 0.6 0.9 1.1 1.2 1.6-1.7 2.3-3.4 4.6-5.1 6.9-4 5.4-8 10.7-11.7 16.4 0 0.1 0.1 0.2-0.2 0.1-0.3-0.8-0.7-1.6-0.9-2.4-1-3.4-1-7.3-0.7-10.8 0.7-10.5 5.1-21.3 11.8-29.4 8.1-9.9 19.8-15.7 30.4-22.2 1.7-0.4 2.6 0.5 3 2.1 4.7 16.9-2.1 37.8-13.2 50.9-6.1 7.1-14.2 13.3-23.3 15.1z"/>
	<path class="s4" d="m58.9 79.2l-17-21.8 0.1-0.1c2.2-1.6 2.8-4.4 1.5-6.9-2.4-4.4-5.7-8.6-8.1-13.1-1.1-1.5-3.1-0.1-2.5 1.6l6.8 11c0.6 1.5-1.1 2.6-1.9 1.3-2.3-3.2-4.2-7.3-6.5-10.5-1.2-1.5-3-0.5-2.6 1.4l6.9 11.2c0.4 1.4-1 2.4-1.9 1.3l-6.9-11c-1.2-0.9-2.7 0.2-2.3 1.8l8.8 14.1c1.4 1.3 3 1.6 4.7 0.8 0.2-0.1 0.9-0.6 1-0.5l13.5 24c-7.7-0.8-15-5.5-20.6-11.1-12-12.1-19.5-31.1-17.4-49.3 0.1-1.1 0.3-2.9 0.6-3.9 0.4-1.3 1.6-1.8 2.7-1.2 8.9 5.3 18.8 9.4 26.5 16.9 8 7.8 13.6 19.3 15.1 31 0.6 4.3 0.8 8.9-0.5 13z"/>
	<path class="s1" d="m59 26c-0.4 0.9-0.6 2.2-1.2 3l-0.6-0.2-0.9-2.8-2.7-1.2v-0.6l2.6-1.2c0.4-0.6 0.8-2.8 1.3-3q0.2-0.1 0.3 0c0.4 0.1 0.8 2.4 1.2 2.9 0.5 0.5 1.9 0.7 2.5 1.1 0.2 0.2 0.3 0.4 0.1 0.7-0.1 0.4-2.1 1-2.6 1.3z"/>
	<path class="s0" d="m56.2 41.1c0.2-0.2-0.8-2.2-0.9-2.5-1.6-3.2-4.3-6.4-6.9-8.7-0.3-0.3-1.7-1.3-1.9-1.6 0-0.2 0.2-0.1 0.3-0.1 0.6 0.1 1.9 1 2.4 1.4 3.6 2.4 6.4 6.3 8 10.6 0.3 0 0.2-0.1 0.2-0.2 1.4-3-2-8.9-4-10.9-1.9-1.9-5.1-3.4-7.7-3.7-2.4-0.2-2.5 1.1-2 3.3 1.2 4.8 4.6 8.5 8.4 10.9 1.2 0.8 2.7 1.6 4.1 1.5z"/>
</svg>