<svg width="284" height="243" viewBox="0 0 284 243" fill="none" xmlns="http://www.w3.org/2000/svg">
<path d="M123.03 84.6856C122.459 84.6856 122.023 84.5204 121.725 84.1929C121.428 83.8654 121.278 83.3931 121.278 82.7757V72.4236C121.278 71.8062 121.428 71.3339 121.725 71.0064C122.023 70.6789 122.459 70.5137 123.03 70.5137H127.479C128.402 70.5137 129.191 70.6644 129.84 70.9658C130.49 71.2672 130.987 71.6932 131.326 72.241C131.665 72.7916 131.836 73.435 131.836 74.1711C131.836 75.0029 131.621 75.713 131.189 76.3013C130.758 76.8925 130.172 77.2924 129.43 77.5069V77.1852C130.306 77.3591 130.984 77.7475 131.463 78.3503C131.944 78.9531 132.183 79.724 132.183 80.663C132.183 81.9092 131.778 82.8917 130.971 83.6075C130.161 84.3234 129.059 84.6827 127.66 84.6827H123.027L123.03 84.6856ZM124.486 76.1419H126.877C127.484 76.1419 127.931 76.0202 128.218 75.7796C128.505 75.5391 128.647 75.171 128.647 74.6754C128.647 74.1798 128.505 73.8147 128.218 73.5799C127.931 73.3452 127.484 73.2292 126.877 73.2292H124.486V76.1448V76.1419ZM124.486 81.973H127.203C127.823 81.973 128.276 81.8425 128.562 81.5817C128.849 81.3209 128.991 80.9296 128.991 80.405C128.991 79.8805 128.849 79.495 128.562 79.24C128.276 78.985 127.823 78.8574 127.203 78.8574H124.486V81.973Z" fill="#4B882A"/>
<path d="M135.831 84.6856C135.26 84.6856 134.824 84.5204 134.527 84.1929C134.229 83.8654 134.08 83.3931 134.08 82.7757V72.4236C134.08 71.8062 134.229 71.3339 134.527 71.0064C134.824 70.6789 135.26 70.5137 135.831 70.5137H142.013C142.45 70.5137 142.778 70.6354 142.999 70.8759C143.22 71.1165 143.328 71.4672 143.328 71.9222C143.328 72.3772 143.218 72.751 142.999 72.9974C142.781 73.2466 142.452 73.3683 142.013 73.3683H137.29V76.0607H141.613C142.039 76.0607 142.363 76.1825 142.589 76.423C142.813 76.6635 142.926 77.02 142.926 77.4895C142.926 77.959 142.813 78.3126 142.589 78.556C142.363 78.7966 142.039 78.9183 141.613 78.9183H137.29V81.8338H142.013C142.45 81.8338 142.778 81.9585 142.999 82.2048C143.218 82.454 143.328 82.8047 143.328 83.2597C143.328 83.7147 143.218 84.0828 142.999 84.3262C142.781 84.5668 142.452 84.6885 142.013 84.6885H135.831V84.6856Z" fill="#4B882A"/>
<path d="M146.831 84.8682C146.344 84.8682 145.971 84.7204 145.708 84.4248C145.445 84.1292 145.316 83.7148 145.316 83.1786V72.0236C145.316 71.473 145.455 71.0557 145.737 70.7687C146.015 70.4818 146.412 70.3369 146.923 70.3369C147.349 70.3369 147.685 70.4268 147.935 70.6093C148.185 70.789 148.411 71.0875 148.619 71.5049L152.54 79.2632H151.901L155.803 71.5049C156.021 71.0904 156.255 70.7919 156.505 70.6093C156.755 70.4297 157.091 70.3369 157.517 70.3369C158.004 70.3369 158.377 70.4818 158.64 70.7687C158.901 71.0586 159.032 71.4759 159.032 72.0236V83.1786C159.032 83.7148 158.903 84.1292 158.648 84.4248C158.393 84.7204 158.014 84.8682 157.517 84.8682C157.02 84.8682 156.658 84.7204 156.397 84.4248C156.134 84.1292 156.005 83.7148 156.005 83.1786V76.2636H156.389L153.452 81.8918C153.281 82.1874 153.102 82.4077 152.913 82.5555C152.724 82.7033 152.471 82.7758 152.156 82.7758C151.84 82.7758 151.603 82.7033 151.409 82.5555C151.214 82.4077 151.038 82.1874 150.88 81.8918L147.925 76.2433H148.345V83.1786C148.345 83.7148 148.216 84.1292 147.961 84.4248C147.706 84.7204 147.33 84.8682 146.831 84.8682Z" fill="#4B882A"/>
<path d="M162.495 80.6864C162.13 80.6864 161.827 80.5531 161.583 80.2836C161.338 80.0169 161.217 79.6807 161.217 79.2779C161.217 78.8751 161.338 78.5447 161.583 78.2838C161.825 78.023 162.13 77.8926 162.495 77.8926H166.106C166.471 77.8926 166.774 78.023 167.018 78.2838C167.26 78.5447 167.384 78.878 167.384 79.2779C167.384 79.6778 167.263 80.014 167.018 80.2836C166.774 80.5531 166.471 80.6864 166.106 80.6864H162.495Z" fill="#4B882A"/>
<path d="M171.068 84.8682C170.581 84.8682 170.208 84.7204 169.945 84.4248C169.682 84.1292 169.553 83.7148 169.553 83.1786V72.0236C169.553 71.473 169.693 71.0557 169.974 70.7687C170.253 70.4818 170.65 70.3369 171.16 70.3369C171.586 70.3369 171.923 70.4268 172.172 70.6093C172.422 70.789 172.648 71.0875 172.856 71.5049L176.777 79.2632H176.138L180.04 71.5049C180.258 71.0904 180.492 70.7919 180.742 70.6093C180.992 70.4297 181.329 70.3369 181.755 70.3369C182.241 70.3369 182.615 70.4818 182.878 70.7687C183.138 71.0586 183.269 71.4759 183.269 72.0236V83.1786C183.269 83.7148 183.141 84.1292 182.885 84.4248C182.63 84.7204 182.252 84.8682 181.755 84.8682C181.258 84.8682 180.895 84.7204 180.634 84.4248C180.372 84.1292 180.243 83.7148 180.243 83.1786V76.2636H180.627L177.689 81.8918C177.518 82.1874 177.34 82.4077 177.15 82.5555C176.961 82.7033 176.708 82.7758 176.393 82.7758C176.077 82.7758 175.841 82.7033 175.646 82.5555C175.451 82.4077 175.275 82.1874 175.118 81.8918L172.162 76.2433H172.583V83.1786C172.583 83.7148 172.454 84.1292 172.199 84.4248C171.944 84.7204 171.568 84.8682 171.068 84.8682Z" fill="#4B882A"/>
<path d="M187.39 84.6856C186.819 84.6856 186.383 84.5204 186.086 84.1929C185.789 83.8654 185.639 83.3931 185.639 82.7757V72.4236C185.639 71.8062 185.789 71.3339 186.086 71.0064C186.383 70.6789 186.819 70.5137 187.39 70.5137H193.572C194.009 70.5137 194.337 70.6354 194.558 70.8759C194.779 71.1165 194.887 71.4672 194.887 71.9222C194.887 72.3772 194.777 72.751 194.558 72.9974C194.34 73.2466 194.011 73.3683 193.572 73.3683H188.849V76.0607H193.173C193.599 76.0607 193.922 76.1825 194.148 76.423C194.372 76.6635 194.485 77.02 194.485 77.4895C194.485 77.959 194.372 78.3126 194.148 78.556C193.922 78.7966 193.599 78.9183 193.173 78.9183H188.849V81.8338H193.572C194.009 81.8338 194.337 81.9585 194.558 82.2048C194.777 82.454 194.887 82.8047 194.887 83.2597C194.887 83.7147 194.777 84.0828 194.558 84.3262C194.34 84.5668 194.011 84.6885 193.572 84.6885H187.39V84.6856Z" fill="#4B882A"/>
<path d="M197.859 80.6864C197.493 80.6864 197.191 80.5531 196.946 80.2836C196.702 80.0169 196.581 79.6807 196.581 79.2779C196.581 78.8751 196.702 78.5447 196.946 78.2838C197.188 78.023 197.493 77.8926 197.859 77.8926H201.469C201.835 77.8926 202.137 78.023 202.382 78.2838C202.623 78.5447 202.747 78.878 202.747 79.2779C202.747 79.6778 202.626 80.014 202.382 80.2836C202.137 80.5531 201.835 80.6864 201.469 80.6864H197.859Z" fill="#4B882A"/>
<path d="M211.083 84.9059C209.781 84.9059 208.64 84.6016 207.654 83.9901C206.668 83.3815 205.905 82.5265 205.363 81.4281C204.822 80.3297 204.551 79.0487 204.551 77.5881C204.551 76.4897 204.706 75.4898 205.016 74.5943C205.327 73.6959 205.771 72.9249 206.347 72.2816C206.925 71.6382 207.614 71.1455 208.416 70.8035C209.218 70.4615 210.107 70.2905 211.08 70.2905C212.382 70.2905 213.52 70.5919 214.499 71.1947C215.477 71.7976 216.239 72.6467 216.786 73.7364C217.333 74.829 217.607 76.1129 217.607 77.5852C217.607 78.6836 217.452 79.6834 217.141 80.579C216.831 81.4745 216.387 82.2512 215.811 82.9004C215.232 83.5496 214.543 84.0451 213.741 84.3871C212.939 84.7291 212.05 84.9001 211.078 84.9001L211.083 84.9059ZM211.083 81.8107C211.727 81.8107 212.274 81.6426 212.724 81.3093C213.173 80.976 213.52 80.492 213.762 79.8631C214.004 79.2342 214.128 78.4749 214.128 77.591C214.128 76.2636 213.86 75.2319 213.326 74.4957C212.789 73.7596 212.043 73.3915 211.083 73.3915C210.449 73.3915 209.907 73.5567 209.45 73.8842C208.995 74.2117 208.645 74.687 208.401 75.3101C208.159 75.9332 208.035 76.6925 208.035 77.591C208.035 78.9183 208.303 79.9529 208.837 80.6949C209.371 81.4397 210.12 81.8107 211.08 81.8107H211.083ZM216.589 86.4738C216.807 86.8766 216.886 87.2418 216.826 87.5693C216.765 87.8968 216.616 88.175 216.379 88.404C216.142 88.6329 215.861 88.7778 215.54 88.8474C215.217 88.914 214.898 88.8821 214.583 88.7459C214.267 88.6126 214.004 88.3576 213.799 87.9808L212.45 85.5898C212.316 85.3493 212.14 85.1754 211.922 85.0682C211.703 84.961 211.417 84.9088 211.064 84.9088L213.563 83.8828C214.109 83.8828 214.572 83.993 214.948 84.2132C215.324 84.4335 215.648 84.7929 215.916 85.2884L216.592 86.4738H216.589Z" fill="#4B882A"/>
<path d="M225.288 84.9059C224.352 84.9059 223.524 84.7755 222.808 84.5146C222.091 84.2538 221.486 83.8625 220.994 83.338C220.502 82.8163 220.132 82.1613 219.882 81.3788C219.632 80.5934 219.508 79.6863 219.508 78.6546V72.2033C219.508 71.586 219.653 71.1223 219.947 70.8064C220.239 70.4905 220.652 70.334 221.189 70.334C221.725 70.334 222.151 70.4905 222.438 70.8064C222.724 71.1223 222.866 71.586 222.866 72.2033V78.6951C222.866 79.7269 223.074 80.5036 223.487 81.0252C223.9 81.5469 224.502 81.8107 225.293 81.8107C226.085 81.8107 226.666 81.5498 227.082 81.0252C227.494 80.5036 227.702 79.7269 227.702 78.6951V72.2033C227.702 71.586 227.844 71.1223 228.131 70.8064C228.417 70.4905 228.828 70.334 229.362 70.334C229.895 70.334 230.303 70.4905 230.584 70.8064C230.863 71.1223 231.005 71.586 231.005 72.2033V78.6546C231.005 80.0341 230.789 81.1905 230.358 82.1208C229.927 83.0511 229.285 83.7495 228.433 84.2103C227.581 84.6711 226.537 84.903 225.296 84.903L225.288 84.9059Z" fill="#4B882A"/>
<path d="M234.992 84.6856C234.421 84.6856 233.984 84.5204 233.687 84.1929C233.39 83.8654 233.24 83.3931 233.24 82.7757V72.4236C233.24 71.8062 233.39 71.3339 233.687 71.0064C233.984 70.6789 234.421 70.5137 234.992 70.5137H241.174C241.61 70.5137 241.939 70.6354 242.16 70.8759C242.381 71.1165 242.489 71.4672 242.489 71.9222C242.489 72.3772 242.378 72.751 242.16 72.9974C241.942 73.2466 241.613 73.3683 241.174 73.3683H236.451V76.0607H240.774C241.2 76.0607 241.524 76.1825 241.75 76.423C241.973 76.6635 242.086 77.02 242.086 77.4895C242.086 77.959 241.973 78.3126 241.75 78.556C241.524 78.7966 241.2 78.9183 240.774 78.9183H236.451V81.8338H241.174C241.61 81.8338 241.939 81.9585 242.16 82.2048C242.378 82.454 242.489 82.8047 242.489 83.2597C242.489 83.7147 242.378 84.0828 242.16 84.3262C241.942 84.5668 241.613 84.6885 241.174 84.6885H234.992V84.6856Z" fill="#4B882A"/>
<path d="M246.117 84.8682C245.581 84.8682 245.168 84.703 244.876 84.3755C244.584 84.048 244.437 83.5872 244.437 82.9989V72.3859C244.437 71.7831 244.587 71.3194 244.884 70.9977C245.181 70.676 245.599 70.5137 246.133 70.5137H250.619C252.079 70.5137 253.207 70.9049 254.004 71.6903C254.8 72.4757 255.197 73.5625 255.197 74.9565C255.197 75.855 255.019 76.6346 254.658 77.2982C254.301 77.9619 253.783 78.472 253.107 78.8256C252.431 79.182 251.603 79.3588 250.617 79.3588L250.764 78.9965H251.64C252.163 78.9965 252.626 79.1328 253.025 79.4081C253.428 79.6834 253.762 80.1007 254.027 80.663L254.94 82.4714C255.134 82.8598 255.226 83.2394 255.213 83.6075C255.2 83.9756 255.071 84.277 254.821 84.5117C254.572 84.7465 254.211 84.8624 253.735 84.8624C253.259 84.8624 252.875 84.7552 252.578 84.5407C252.281 84.3262 252.016 83.9901 251.784 83.5351L250.125 80.179C249.98 79.8834 249.794 79.6805 249.567 79.5646C249.341 79.4516 249.084 79.3936 248.792 79.3936H247.79V82.9931C247.79 83.5843 247.65 84.0422 247.372 84.3697C247.093 84.6972 246.672 84.8624 246.112 84.8624L246.117 84.8682ZM247.795 76.7853H250.02C250.664 76.7853 251.156 76.6433 251.498 76.3621C251.837 76.081 252.008 75.6463 252.008 75.0551C252.008 74.4639 251.837 74.0668 251.498 73.7799C251.156 73.493 250.664 73.3481 250.02 73.3481H247.795V76.7853Z" fill="#4B882A"/>
<path d="M123.006 98.7971C122.683 98.7971 122.438 98.7043 122.27 98.5189C122.102 98.3334 122.018 98.0581 122.018 97.6929V90.775C122.018 90.404 122.102 90.1171 122.27 89.9172C122.438 89.7172 122.662 89.6187 122.938 89.6187C123.183 89.6187 123.374 89.6708 123.514 89.7722C123.653 89.8737 123.806 90.0447 123.974 90.2794L127.627 95.3077H127.303V90.7113C127.303 90.3548 127.385 90.0852 127.55 89.8998C127.716 89.7143 127.958 89.6216 128.281 89.6216C128.605 89.6216 128.847 89.7143 129.012 89.8998C129.178 90.0852 129.26 90.3577 129.26 90.7113V97.7451C129.26 98.0667 129.183 98.3218 129.028 98.5131C128.876 98.7043 128.668 98.8 128.405 98.8C128.142 98.8 127.939 98.7478 127.79 98.6406C127.64 98.5334 127.479 98.3682 127.311 98.1392L123.658 93.0993H123.982V97.6958C123.982 98.061 123.9 98.3363 123.735 98.5218C123.569 98.7072 123.327 98.8 123.004 98.8L123.006 98.7971Z" fill="#FFC668"/>
<path d="M132.728 98.8233C132.236 98.8233 131.834 98.7248 131.518 98.5248C131.203 98.3248 130.966 98.0292 130.811 97.6293C130.653 97.2322 130.574 96.7279 130.574 96.1193V93.453C130.574 93.0792 130.664 92.798 130.84 92.6097C131.016 92.4184 131.271 92.3228 131.6 92.3228C131.928 92.3228 132.184 92.4184 132.36 92.6097C132.536 92.8009 132.625 93.0821 132.625 93.453V96.1831C132.625 96.4874 132.683 96.7163 132.799 96.8699C132.915 97.0236 133.093 97.0989 133.341 97.0989C133.617 97.0989 133.843 96.9888 134.019 96.7685C134.195 96.5482 134.285 96.2555 134.285 95.8933V93.4559C134.285 93.0821 134.374 92.8009 134.55 92.6126C134.726 92.4213 134.981 92.3256 135.31 92.3256C135.639 92.3256 135.894 92.4213 136.07 92.6126C136.246 92.8038 136.336 93.085 136.336 93.4559V97.6582C136.336 98.4204 136.004 98.8001 135.344 98.8001C135.021 98.8001 134.771 98.7016 134.595 98.5074C134.419 98.3132 134.329 98.0292 134.329 97.6582V96.9221L134.513 97.5452C134.345 97.9596 134.108 98.2784 133.806 98.4987C133.504 98.719 133.143 98.8291 132.728 98.8291V98.8233Z" fill="#FFC668"/>
<path d="M140.504 98.8231C139.928 98.8231 139.455 98.7246 139.081 98.5304C138.708 98.3362 138.429 98.0406 138.245 97.6494C138.061 97.2552 137.969 96.7625 137.969 96.1713V94.102H137.577C137.333 94.102 137.141 94.0296 137.007 93.8876C136.873 93.7427 136.804 93.5369 136.804 93.2645C136.804 92.992 136.873 92.7892 137.007 92.65C137.141 92.5109 137.33 92.4414 137.577 92.4414H137.969V91.6531C137.969 91.2821 138.056 90.9981 138.235 90.8039C138.411 90.6098 138.663 90.5112 138.995 90.5112C139.326 90.5112 139.578 90.6098 139.755 90.8039C139.931 90.9981 140.02 91.2821 140.02 91.6531V92.4414H140.964C141.217 92.4414 141.411 92.5109 141.545 92.65C141.68 92.7892 141.748 92.9949 141.748 93.2645C141.748 93.534 141.68 93.7427 141.545 93.8876C141.411 94.0325 141.217 94.102 140.964 94.102H140.02V96.096C140.02 96.409 140.089 96.6408 140.223 96.7886C140.357 96.9364 140.57 97.0118 140.862 97.0118C140.97 97.0118 141.072 97.0002 141.172 96.9741C141.272 96.948 141.364 96.9364 141.448 96.9364C141.572 96.9277 141.672 96.9683 141.748 97.0581C141.824 97.148 141.864 97.348 141.864 97.661C141.864 97.916 141.829 98.1275 141.761 98.3014C141.693 98.4753 141.569 98.6 141.393 98.6753C141.285 98.7188 141.14 98.7536 140.956 98.7825C140.772 98.8115 140.622 98.826 140.507 98.826L140.504 98.8231Z" fill="#FFC668"/>
<path d="M143.486 98.7968C143.147 98.7968 142.889 98.6983 142.707 98.5041C142.526 98.3099 142.437 98.0259 142.437 97.6549V93.4526C142.437 93.0874 142.523 92.8092 142.697 92.615C142.87 92.4209 143.118 92.3223 143.441 92.3223C143.764 92.3223 144.009 92.4209 144.177 92.615C144.346 92.8092 144.43 93.0903 144.43 93.4526V93.9743H144.314C144.39 93.4671 144.588 93.0643 144.908 92.7687C145.227 92.473 145.624 92.3165 146.1 92.2992C146.323 92.2905 146.489 92.3513 146.602 92.4817C146.712 92.6122 146.773 92.8556 146.781 93.2121C146.781 93.5164 146.723 93.7569 146.607 93.9366C146.491 94.1134 146.273 94.2206 145.95 94.2525L145.684 94.2786C145.277 94.3221 144.982 94.4467 144.798 94.6524C144.614 94.8611 144.522 95.1654 144.522 95.5741V97.6549C144.522 98.0288 144.432 98.3099 144.256 98.5041C144.08 98.6983 143.822 98.7968 143.483 98.7968H143.486Z" fill="#FFC668"/>
<path d="M148.451 91.4212C148.09 91.4212 147.812 91.3285 147.614 91.143C147.417 90.9575 147.32 90.6851 147.32 90.3315C147.32 89.9779 147.417 89.7171 147.614 89.5316C147.809 89.3462 148.088 89.2534 148.451 89.2534C148.813 89.2534 149.111 89.3462 149.303 89.5316C149.495 89.7171 149.589 89.9837 149.589 90.3315C149.589 90.6793 149.492 90.9575 149.303 91.143C149.111 91.3285 148.827 91.4212 148.451 91.4212ZM148.451 98.797C148.127 98.797 147.877 98.6898 147.701 98.4782C147.525 98.2667 147.436 97.9624 147.436 97.5653V93.5543C147.436 93.1572 147.525 92.8529 147.701 92.6414C147.877 92.4298 148.127 92.3226 148.451 92.3226C148.774 92.3226 149.037 92.4298 149.216 92.6414C149.397 92.8529 149.487 93.1572 149.487 93.5543V97.5653C149.487 97.9624 149.397 98.2667 149.221 98.4782C149.045 98.6898 148.787 98.797 148.451 98.797Z" fill="#FFC668"/>
<path d="M151.688 98.797C151.364 98.797 151.115 98.6984 150.938 98.5042C150.762 98.3101 150.673 98.0261 150.673 97.6551V93.4528C150.673 93.0876 150.76 92.8094 150.933 92.6152C151.107 92.421 151.354 92.3225 151.677 92.3225C152.001 92.3225 152.245 92.421 152.414 92.6152C152.582 92.8094 152.666 93.0905 152.666 93.4528V94.0498L152.54 93.5281C152.724 93.1311 152.987 92.8268 153.329 92.6152C153.671 92.4036 154.06 92.2993 154.499 92.2993C154.938 92.2993 155.325 92.395 155.617 92.5862C155.908 92.7775 156.127 93.0731 156.274 93.476C156.419 93.8788 156.492 94.3831 156.492 94.9917V97.658C156.492 98.0319 156.403 98.313 156.227 98.5071C156.05 98.7013 155.795 98.7999 155.467 98.7999C155.138 98.7999 154.883 98.7013 154.707 98.5071C154.531 98.313 154.441 98.029 154.441 97.658V95.0815C154.441 94.7019 154.381 94.4295 154.262 94.2701C154.144 94.1107 153.968 94.0295 153.739 94.0295C153.431 94.0295 153.187 94.1367 153.003 94.3541C152.819 94.5686 152.727 94.8613 152.727 95.2235V97.6609C152.727 98.4231 152.382 98.8028 151.691 98.8028L151.688 98.797Z" fill="#FFC668"/>
<path d="M159.866 98.8232C159.382 98.8232 158.954 98.6927 158.583 98.429C158.209 98.1653 157.918 97.7885 157.707 97.2987C157.497 96.809 157.392 96.2293 157.392 95.5599C157.392 94.8904 157.497 94.2905 157.707 93.8094C157.918 93.3254 158.209 92.9544 158.583 92.6907C158.956 92.4298 159.382 92.2965 159.866 92.2965C160.289 92.2965 160.668 92.4067 161.007 92.6269C161.347 92.8472 161.573 93.1312 161.686 93.4761H161.56V90.7605C161.56 90.3896 161.649 90.1055 161.825 89.9114C162.001 89.7172 162.256 89.6187 162.585 89.6187C162.914 89.6187 163.158 89.7172 163.34 89.9114C163.521 90.1055 163.611 90.3896 163.611 90.7605V97.6552C163.611 98.0291 163.524 98.3102 163.35 98.5044C163.177 98.6985 162.927 98.7971 162.596 98.7971C162.264 98.7971 162.022 98.6985 161.846 98.5044C161.67 98.3102 161.581 98.0262 161.581 97.6552V96.9307L161.707 97.5538C161.599 97.9334 161.375 98.2406 161.034 98.4754C160.692 98.7072 160.303 98.8232 159.863 98.8232H159.866ZM160.523 97.1596C160.731 97.1596 160.915 97.1017 161.076 96.9886C161.236 96.8756 161.362 96.7017 161.449 96.467C161.539 96.2351 161.581 95.9308 161.581 95.5599C161.581 94.9918 161.481 94.5832 161.281 94.3339C161.081 94.0847 160.829 93.9601 160.521 93.9601C160.313 93.9601 160.129 94.0151 159.969 94.1253C159.808 94.2354 159.682 94.4064 159.587 94.6382C159.495 94.8701 159.448 95.1773 159.448 95.5599C159.448 96.1192 159.548 96.5249 159.748 96.78C159.948 97.035 160.205 97.1596 160.518 97.1596H160.523Z" fill="#FFC668"/>
<path d="M167.663 98.823C167.034 98.823 166.485 98.6926 166.017 98.4289C165.548 98.1651 165.183 97.7884 164.923 97.2986C164.662 96.8088 164.531 96.2292 164.531 95.5597C164.531 95.0525 164.604 94.5975 164.749 94.1947C164.894 93.7918 165.107 93.4498 165.383 93.1658C165.659 92.8818 165.99 92.6674 166.374 92.5195C166.758 92.3717 167.187 92.2964 167.665 92.2964C168.294 92.2964 168.843 92.4268 169.311 92.6905C169.78 92.9543 170.142 93.3281 170.4 93.815C170.658 94.3019 170.787 94.8844 170.787 95.5597C170.787 96.0582 170.713 96.5132 170.568 96.9189C170.424 97.3247 170.213 97.6696 169.94 97.9536C169.666 98.2376 169.338 98.4521 168.949 98.5999C168.559 98.7477 168.133 98.823 167.665 98.823H167.663ZM167.663 97.1595C167.87 97.1595 168.054 97.1015 168.215 96.9885C168.375 96.8755 168.502 96.7016 168.588 96.4668C168.678 96.235 168.72 95.9307 168.72 95.5597C168.72 94.9917 168.62 94.583 168.42 94.3338C168.22 94.0846 167.968 93.9599 167.66 93.9599C167.452 93.9599 167.268 94.015 167.108 94.1251C166.947 94.2352 166.821 94.4062 166.727 94.6381C166.634 94.8699 166.587 95.1771 166.587 95.5597C166.587 96.119 166.687 96.5248 166.887 96.7798C167.087 97.0349 167.344 97.1595 167.657 97.1595H167.663Z" fill="#FFC668"/>
<path d="M178.181 98.8229C177.873 98.8229 177.553 98.7997 177.219 98.7533C176.885 98.707 176.569 98.6374 176.269 98.5447C175.969 98.4519 175.701 98.3418 175.462 98.2143C175.254 98.1041 175.11 97.9592 175.023 97.7767C174.936 97.5941 174.907 97.4028 174.931 97.1999C174.954 96.9971 175.018 96.8174 175.125 96.6609C175.233 96.5044 175.375 96.3971 175.551 96.3421C175.728 96.287 175.927 96.316 176.151 96.4261C176.443 96.5797 176.774 96.6956 177.142 96.7826C177.51 96.8695 177.858 96.9101 178.178 96.9101C178.686 96.9101 179.041 96.8377 179.243 96.687C179.446 96.5392 179.548 96.3537 179.548 96.1334C179.548 95.9392 179.477 95.7827 179.335 95.6639C179.193 95.5451 178.941 95.4437 178.581 95.3596L177.234 95.0408C176.498 94.8727 175.948 94.5742 175.588 94.1511C175.228 93.728 175.046 93.1831 175.046 92.5136C175.046 92.0731 175.128 91.6732 175.294 91.3138C175.459 90.9544 175.693 90.6472 175.996 90.3922C176.298 90.1371 176.661 89.943 177.079 89.801C177.497 89.6618 177.965 89.5923 178.478 89.5923C178.878 89.5923 179.283 89.6416 179.693 89.7372C180.103 89.8357 180.458 89.9806 180.758 90.1748C180.934 90.2763 181.06 90.4154 181.139 90.5951C181.216 90.7718 181.247 90.9573 181.231 91.1486C181.216 91.3399 181.155 91.5051 181.053 91.65C180.95 91.7949 180.811 91.8905 180.637 91.9369C180.464 91.9833 180.258 91.9514 180.022 91.8413C179.798 91.7311 179.548 91.65 179.267 91.5949C178.986 91.5399 178.715 91.5138 178.454 91.5138C178.17 91.5138 177.929 91.5485 177.729 91.621C177.529 91.6934 177.376 91.7978 177.274 91.9311C177.171 92.0673 177.119 92.2238 177.119 92.4006C177.119 92.5774 177.187 92.7281 177.321 92.8498C177.455 92.9715 177.702 93.0759 178.065 93.1599L179.401 93.4758C180.145 93.6526 180.703 93.9453 181.071 94.3511C181.439 94.7568 181.623 95.2872 181.623 95.9392C181.623 96.3798 181.542 96.7768 181.381 97.1333C181.221 97.4897 180.989 97.7912 180.69 98.0404C180.39 98.2896 180.03 98.4838 179.606 98.6171C179.183 98.7533 178.707 98.82 178.178 98.82L178.181 98.8229Z" fill="#FFC668"/>
<path d="M184.493 98.823C184.053 98.823 183.669 98.7332 183.336 98.5564C183.002 98.3796 182.741 98.1362 182.552 97.8261C182.363 97.516 182.271 97.1653 182.271 96.7653C182.271 96.3074 182.378 95.9481 182.594 95.6872C182.81 95.4264 183.154 95.238 183.63 95.1221C184.106 95.0091 184.74 94.9511 185.531 94.9511H186.165V96.0176H185.531C185.231 96.0176 184.984 96.0408 184.787 96.0872C184.59 96.1335 184.448 96.206 184.356 96.3045C184.264 96.4031 184.216 96.5277 184.216 96.6784C184.216 96.8726 184.28 97.0349 184.406 97.1595C184.532 97.287 184.716 97.3508 184.953 97.3508C185.145 97.3508 185.316 97.3044 185.465 97.2117C185.615 97.1189 185.736 96.9885 185.828 96.8233C185.92 96.6581 185.968 96.4668 185.968 96.2466V94.7743C185.968 94.47 185.897 94.2526 185.755 94.128C185.613 94.0005 185.368 93.9367 185.024 93.9367C184.84 93.9367 184.632 93.9599 184.401 94.0063C184.169 94.0527 183.914 94.1367 183.63 94.2526C183.422 94.3367 183.246 94.3512 183.099 94.2903C182.954 94.2324 182.839 94.1309 182.76 93.986C182.678 93.8411 182.641 93.6846 182.644 93.5165C182.647 93.3484 182.697 93.1861 182.794 93.0325C182.888 92.8789 183.038 92.763 183.238 92.676C183.606 92.5224 183.946 92.421 184.259 92.3717C184.569 92.3196 184.855 92.2964 185.116 92.2964C185.744 92.2964 186.265 92.3949 186.678 92.5949C187.088 92.7949 187.396 93.0992 187.598 93.5078C187.801 93.9193 187.903 94.4468 187.903 95.0873V97.6522C187.903 98.026 187.822 98.3071 187.661 98.5013C187.501 98.6955 187.267 98.794 186.959 98.794C186.651 98.794 186.404 98.6955 186.239 98.5013C186.073 98.3071 185.991 98.0231 185.991 97.6522V97.3218L186.06 97.4986C186.02 97.771 185.934 98.0028 185.794 98.197C185.655 98.3912 185.476 98.5448 185.252 98.6549C185.029 98.7651 184.777 98.8201 184.493 98.8201V98.823Z" fill="#FFC668"/>
<path d="M192.797 98.8232C192.358 98.8232 191.968 98.7072 191.627 98.4754C191.285 98.2435 191.061 97.9363 190.953 97.5538L191.08 97.0321V97.6552C191.08 98.0291 190.993 98.3102 190.819 98.5044C190.646 98.6985 190.399 98.7971 190.075 98.7971C189.752 98.7971 189.494 98.6985 189.32 98.5044C189.147 98.3102 189.06 98.0262 189.06 97.6552V90.7605C189.06 90.3896 189.149 90.1055 189.326 89.9114C189.502 89.7172 189.752 89.6187 190.075 89.6187C190.399 89.6187 190.661 89.7172 190.84 89.9114C191.022 90.1055 191.111 90.3896 191.111 90.7605V93.4761H190.972C191.087 93.1283 191.314 92.8472 191.65 92.6269C191.987 92.4067 192.368 92.2965 192.792 92.2965C193.283 92.2965 193.715 92.427 194.088 92.6907C194.461 92.9544 194.751 93.3254 194.958 93.8094C195.166 94.2905 195.269 94.8759 195.269 95.5599C195.269 96.2438 195.166 96.809 194.958 97.2987C194.751 97.7885 194.461 98.1653 194.088 98.429C193.715 98.6898 193.283 98.8232 192.792 98.8232H192.797ZM192.152 97.1596C192.36 97.1596 192.542 97.1017 192.699 96.9886C192.857 96.8756 192.981 96.7017 193.073 96.467C193.165 96.2351 193.212 95.9308 193.212 95.5599C193.212 94.9918 193.112 94.5832 192.912 94.3339C192.713 94.0847 192.46 93.9601 192.152 93.9601C191.945 93.9601 191.761 94.0151 191.6 94.1253C191.44 94.2354 191.311 94.4064 191.219 94.6382C191.127 94.8701 191.08 95.1773 191.08 95.5599C191.08 96.1192 191.18 96.5249 191.379 96.78C191.579 97.035 191.837 97.1596 192.152 97.1596Z" fill="#FFC668"/>
<path d="M199.076 98.823C198.448 98.823 197.898 98.6926 197.43 98.4289C196.962 98.1651 196.596 97.7884 196.336 97.2986C196.076 96.8088 195.944 96.2292 195.944 95.5597C195.944 95.0525 196.018 94.5975 196.163 94.1947C196.307 93.7918 196.52 93.4498 196.796 93.1658C197.072 92.8818 197.404 92.6674 197.788 92.5195C198.172 92.3717 198.6 92.2964 199.079 92.2964C199.707 92.2964 200.257 92.4268 200.725 92.6905C201.193 92.9543 201.556 93.3281 201.814 93.815C202.071 94.3019 202.2 94.8844 202.2 95.5597C202.2 96.0582 202.127 96.5132 201.982 96.9189C201.837 97.3247 201.627 97.6696 201.353 97.9536C201.08 98.2376 200.751 98.4521 200.362 98.5999C199.973 98.7477 199.547 98.823 199.079 98.823H199.076ZM199.076 97.1595C199.284 97.1595 199.468 97.1015 199.628 96.9885C199.789 96.8755 199.915 96.7016 200.002 96.4668C200.091 96.235 200.133 95.9307 200.133 95.5597C200.133 94.9917 200.033 94.583 199.834 94.3338C199.634 94.0846 199.381 93.9599 199.074 93.9599C198.866 93.9599 198.682 94.015 198.521 94.1251C198.361 94.2352 198.235 94.4062 198.14 94.6381C198.048 94.8699 198.001 95.1771 198.001 95.5597C198.001 96.119 198.101 96.5248 198.3 96.7798C198.5 97.0349 198.758 97.1595 199.071 97.1595H199.076Z" fill="#FFC668"/>
<path d="M204.191 98.7968C203.852 98.7968 203.594 98.6983 203.412 98.5041C203.231 98.3099 203.142 98.0259 203.142 97.6549V93.4526C203.142 93.0874 203.228 92.8092 203.402 92.615C203.575 92.4209 203.823 92.3223 204.146 92.3223C204.47 92.3223 204.714 92.4209 204.882 92.615C205.051 92.8092 205.135 93.0903 205.135 93.4526V93.9743H205.019C205.095 93.4671 205.293 93.0643 205.613 92.7687C205.932 92.473 206.329 92.3165 206.805 92.2992C207.028 92.2905 207.194 92.3513 207.307 92.4817C207.417 92.6122 207.478 92.8556 207.486 93.2121C207.486 93.5164 207.428 93.7569 207.312 93.9366C207.196 94.1134 206.978 94.2206 206.655 94.2525L206.389 94.2786C205.982 94.3221 205.687 94.4467 205.503 94.6524C205.319 94.8611 205.227 95.1654 205.227 95.5741V97.6549C205.227 98.0288 205.137 98.3099 204.961 98.5041C204.785 98.6983 204.527 98.7968 204.188 98.7968H204.191Z" fill="#FFC668"/>
<path d="M211.125 98.8231C210.433 98.8231 209.837 98.6897 209.334 98.4231C208.832 98.1565 208.445 97.7768 208.177 97.287C207.909 96.7972 207.775 96.2176 207.775 95.5481C207.775 94.8787 207.904 94.3396 208.161 93.8527C208.419 93.3658 208.772 92.9862 209.221 92.7108C209.671 92.4355 210.184 92.2993 210.76 92.2993C211.183 92.2993 211.567 92.3747 211.911 92.5225C212.256 92.6703 212.553 92.8876 212.797 93.1688C213.042 93.4528 213.229 93.7919 213.355 94.1918C213.481 94.5888 213.544 95.0352 213.544 95.525C213.544 95.693 213.502 95.8177 213.418 95.8988C213.334 95.98 213.2 96.0205 213.016 96.0205H209.492V94.954H212.048L211.864 95.1192C211.864 94.8062 211.825 94.5512 211.748 94.357C211.672 94.1628 211.559 94.015 211.409 93.9136C211.259 93.8122 211.072 93.76 210.852 93.76C210.612 93.76 210.407 93.8208 210.236 93.9426C210.063 94.0643 209.931 94.244 209.839 94.4816C209.747 94.7193 209.7 95.0149 209.7 95.3713V95.4844C209.7 96.0843 209.821 96.5161 210.063 96.7741C210.305 97.032 210.678 97.1624 211.186 97.1624C211.354 97.1624 211.548 97.1392 211.767 97.0928C211.985 97.0465 212.195 96.9798 212.395 96.8958C212.595 96.8117 212.769 96.7972 212.913 96.8523C213.058 96.9074 213.174 97.0001 213.252 97.1305C213.334 97.2609 213.376 97.4088 213.384 97.5739C213.392 97.7391 213.358 97.8985 213.281 98.0579C213.205 98.2144 213.079 98.3362 212.9 98.4202C212.632 98.5564 212.345 98.6578 212.043 98.7245C211.74 98.7912 211.433 98.826 211.128 98.826L211.125 98.8231Z" fill="#FFC668"/>
<path d="M216.687 98.8231C216.347 98.8231 216.006 98.797 215.656 98.7419C215.306 98.6869 214.991 98.5883 214.707 98.4434C214.515 98.3594 214.378 98.2435 214.299 98.1014C214.22 97.9594 214.181 97.8058 214.183 97.6435C214.186 97.4812 214.231 97.3363 214.309 97.2059C214.391 97.0755 214.499 96.9827 214.633 96.9277C214.767 96.8726 214.92 96.8784 215.088 96.948C215.411 97.0755 215.701 97.1653 215.958 97.2204C216.216 97.2755 216.463 97.3045 216.702 97.3045C216.986 97.3045 217.189 97.261 217.312 97.1711C217.436 97.0813 217.497 96.9654 217.497 96.8204C217.497 96.6929 217.457 96.5973 217.376 96.5277C217.294 96.4582 217.181 96.4147 217.036 96.3886L215.758 96.1597C215.282 96.0669 214.914 95.8728 214.651 95.583C214.391 95.2902 214.259 94.9077 214.259 94.4353C214.259 93.9948 214.373 93.6151 214.599 93.2992C214.825 92.9804 215.135 92.737 215.532 92.5631C215.927 92.3892 216.382 92.3022 216.897 92.3022C217.241 92.3022 217.557 92.3283 217.841 92.3834C218.125 92.4384 218.401 92.537 218.669 92.6819C218.838 92.7573 218.959 92.8674 219.027 93.0123C219.095 93.1572 219.122 93.305 219.109 93.4615C219.093 93.618 219.045 93.7629 218.964 93.8933C218.882 94.0237 218.775 94.1136 218.635 94.16C218.496 94.2063 218.335 94.1947 218.151 94.1281C217.899 94.0179 217.673 93.9368 217.478 93.8875C217.281 93.8354 217.099 93.8122 216.931 93.8122C216.616 93.8122 216.395 93.8586 216.263 93.9513C216.132 94.044 216.069 94.1629 216.069 94.3078C216.069 94.4179 216.103 94.5077 216.171 94.5802C216.24 94.6526 216.347 94.7019 216.495 94.7251L217.773 94.9656C218.264 95.0497 218.643 95.2352 218.906 95.5192C219.172 95.8032 219.303 96.1858 219.303 96.6669C219.303 97.3537 219.064 97.8841 218.588 98.2608C218.112 98.6376 217.478 98.826 216.687 98.826V98.8231Z" fill="#FFC668"/>
<path d="M220.789 99.1128C221.457 99.2374 221.252 101.153 220.705 101.153H218.819V99.1128H220.786H220.789Z" fill="#FBFBFB"/>
<path d="M68.252 78.1448C68.0653 77.9332 69.0383 75.9364 69.2144 75.5828C70.8001 72.3891 73.4587 69.1576 76.0304 66.8913C76.3881 66.5754 77.8212 65.6132 77.9317 65.3147C78.0158 65.0886 77.8054 65.164 77.7108 65.1756C77.0928 65.2538 75.8174 66.161 75.2416 66.558C71.6495 69.0301 68.8936 72.8615 67.2738 77.1681C67.0213 77.2203 67.1239 77.1276 67.0713 77.0145C65.6697 73.986 69.0383 68.0853 71.0867 66.0711C72.988 64.2018 76.2224 62.6542 78.7626 62.4484C81.2029 62.2485 81.2766 63.5092 80.7375 65.7175C79.5699 70.4879 76.1619 74.2033 72.3884 76.6059C71.1551 77.3913 69.7036 78.2028 68.252 78.1419V78.1448Z" fill="#4B882A"/>
<path d="M74.9759 119.722L88.1556 94.8728C88.8419 94.7656 89.544 95.0235 90.2856 94.9627C95.6369 94.5279 97.9878 88.5345 98.5137 83.8309C99.3604 76.2609 96.0681 72.3165 89.26 77.5419C85.4102 80.498 80.9425 86.4334 83.7089 91.3892C84.0481 91.9978 84.553 92.4789 84.9422 93.0441C83.1987 95.3104 81.5315 97.6318 79.8249 99.9243C75.7963 105.344 71.8308 110.618 68.1283 116.293C68.081 116.363 68.1572 116.473 67.9337 116.447C67.605 115.618 67.1922 114.824 66.9502 113.954C66.0193 110.601 66.0246 106.651 66.277 103.164C67.0344 92.6702 71.3838 81.8746 78.0604 73.7627C86.1702 63.9119 97.9431 58.1185 108.53 51.5803C110.181 51.2412 111.057 52.128 111.483 53.6553C116.211 70.5602 109.435 91.4501 98.2718 104.602C92.2394 111.708 84.1427 117.93 74.9732 119.722H74.9759Z" fill="#82A93A"/>
<path d="M67.8863 116.209L50.9278 94.4353L50.9778 94.2673C53.2498 92.7341 53.8309 89.9374 52.474 87.3986C50.1074 82.9645 46.7782 78.7651 44.3511 74.3251C43.2887 72.8499 41.306 74.1686 41.895 75.9046L48.7189 86.9118C49.2895 88.3956 47.6145 89.5027 46.7519 88.1985C44.4536 84.9816 42.5892 80.8807 40.2646 77.7478C39.0971 76.177 37.3431 77.1885 37.706 79.0926L44.593 90.2649C45.0032 91.6792 43.6174 92.711 42.6629 91.627L35.8232 80.6344C34.6267 79.6867 33.1094 80.7822 33.5486 82.3646L42.3105 96.4814C43.6937 97.8407 45.2794 98.0928 46.9939 97.3277C47.2463 97.2147 47.8511 96.7046 48.0247 96.8321L61.4542 120.756C53.8099 119.988 46.4916 115.325 40.9063 109.697C28.8599 97.5537 21.4181 78.6433 23.4929 60.4314C23.6191 59.3243 23.8268 57.5158 24.124 56.4928C24.5053 55.1828 25.6781 54.7423 26.7615 55.348C35.6786 60.5908 45.6212 64.7322 53.2892 72.1718C61.3096 79.9533 66.9081 91.4734 68.4148 103.188C68.9644 107.463 69.1932 112.085 67.8889 116.212L67.8863 116.209Z" fill="#81AA39"/>
<path d="M68.0071 62.9644C67.5574 63.9005 67.4286 65.1525 66.8369 65.9524L66.2137 65.7872L65.2907 63.0484L62.6216 61.837L62.6006 61.1704L65.2381 59.9561C65.6404 59.4489 65.9744 57.171 66.4845 57.0029C66.5976 56.9652 66.7265 56.9536 66.8395 56.9971C67.1998 57.1304 67.6127 59.4489 68.0229 59.9127C68.4568 60.4053 69.8873 60.6169 70.4527 61.011C70.692 61.1791 70.7735 61.44 70.6499 61.7182C70.4658 62.1268 68.4673 62.6833 68.0071 62.9644Z" fill="#FFC668"/>
<path d="M65.2253 78.1448C65.412 77.9332 64.439 75.9364 64.2628 75.5828C62.6772 72.3891 60.0186 69.1576 57.4468 66.8913C57.0892 66.5754 55.656 65.6132 55.5456 65.3147C55.4615 65.0886 55.6718 65.164 55.7665 65.1756C56.3845 65.2538 57.6598 66.161 58.2357 66.558C61.8278 69.0301 64.5836 72.8615 66.2035 77.1681C66.4559 77.2203 66.3534 77.1276 66.406 77.0145C67.8076 73.986 64.439 68.0853 62.3905 66.0711C60.4893 64.2018 57.2549 62.6542 54.7146 62.4484C52.2743 62.2485 52.2007 63.5092 52.7398 65.7175C53.9073 70.4879 57.3153 74.2033 61.0889 76.6059C62.3222 77.3913 63.7737 78.2028 65.2253 78.1419V78.1448Z" fill="#4B882A"/>
</svg>
