<?xml version="1.0" encoding="UTF-8"?>
<svg id="Layer_1" xmlns="http://www.w3.org/2000/svg" version="1.1" viewBox="0 0 108 80">
  <!-- Generator: Adobe Illustrator 29.0.1, SVG Export Plug-In . SVG Version: 2.1.0 Build 192)  -->
  <defs>
    <style>
      .st0 {
        fill: #81aa39;
      }

      .st1 {
        fill: #ffc668;
      }

      .st2, .st3 {
        fill: #4b882a;
      }

      .st3 {
        font-family: Nunito-Black, Nunito;
        font-size: 13.4px;
        font-weight: 800;
      }

      .st4 {
        fill: #82a93a;
      }
    </style>
  </defs>
  <text class="st3" transform="translate(5.1 76.5)"><tspan x="0" y="0">BEM-ME-QUER</tspan></text>
  <path class="st2" d="M52.2,23.3c-.2-.2.7-1.7.8-2,1.3-2.5,3.6-4.9,5.8-6.7s1.5-1,1.6-1.2-.1-.1-.2-.1c-.5,0-1.6.8-2.1,1.1-3,1.9-5.4,4.9-6.8,8.2-.2,0-.1,0-.2-.1-1.2-2.3,1.7-6.9,3.4-8.4s4.4-2.6,6.5-2.8,2.1.8,1.7,2.5c-1,3.7-3.9,6.5-7.1,8.4-1,.6-2.3,1.2-3.5,1.2Z"/>
  <g>
    <path class="st4" d="M57.9,55.4l11.2-19.1c.6,0,1.2.1,1.8,0,4.5-.3,6.5-5,7-8.6.7-5.8-2.1-8.9-7.9-4.8s-7.1,6.8-4.7,10.7.7.8,1,1.3c-1.5,1.7-2.9,3.5-4.3,5.3-3.4,4.2-6.8,8.2-9.9,12.6s0,.1-.2.1c-.3-.6-.6-1.3-.8-1.9-.8-2.6-.8-5.6-.6-8.3.6-8.1,4.3-16.4,10-22.6,6.9-7.6,16.9-12,25.9-17.1,1.4-.3,2.1.4,2.5,1.6,4,13-1.7,29.1-11.2,39.2-5.1,5.5-12,10.3-19.8,11.6Z"/>
    <path class="st0" d="M51.9,52.7l-14.4-16.8h0c1.9-1.3,2.4-3.5,1.3-5.4-2-3.4-4.8-6.7-6.9-10.1-.9-1.1-2.6-.1-2.1,1.2l5.8,8.5c.5,1.1-.9,2-1.7,1-2-2.5-3.5-5.6-5.5-8s-2.5-.4-2.2,1l5.8,8.6c.3,1.1-.8,1.9-1.6,1l-5.8-8.5c-1-.7-2.3.1-1.9,1.3l7.4,10.9c1.2,1,2.5,1.2,4,.7s.7-.5.9-.4l11.4,18.4c-6.5-.6-12.7-4.2-17.4-8.5-10.2-9.4-16.5-23.9-14.8-37.9s.3-2.2.5-3,1.3-1.3,2.2-.9c7.6,4,16,7.2,22.5,13s11.6,14.9,12.8,23.9c.5,3.3.7,6.9-.4,10Z"/>
    <path class="st1" d="M52,11.7c-.4.7-.5,1.7-1,2.3h-.5c0-.1-.8-2.2-.8-2.2l-2.3-.9v-.5s2.2-.9,2.2-.9c.3-.4.6-2.1,1.1-2.3s.2,0,.3,0c.3.1.7,1.9,1,2.2s1.6.5,2.1.8.3.3.2.5c-.2.3-1.9.7-2.2,1Z"/>
  </g>
  <path class="st2" d="M49.6,23.3c.2-.2-.7-1.7-.8-2-1.3-2.5-3.6-4.9-5.8-6.7s-1.5-1-1.6-1.2.1-.1.2-.1c.5,0,1.6.8,2.1,1.1,3,1.9,5.4,4.9,6.8,8.2.2,0,.1,0,.2-.1,1.2-2.3-1.7-6.9-3.4-8.4s-4.4-2.6-6.5-2.8-2.1.8-1.7,2.5c1,3.7,3.9,6.5,7.1,8.4s2.3,1.2,3.5,1.2Z"/>
</svg>