<svg width="128" height="97" viewBox="0 0 128 97" fill="none" xmlns="http://www.w3.org/2000/svg">
<path d="M73.8253 95.5507L92.5986 60.7435C93.5763 60.5933 94.5763 60.9546 95.6326 60.8693C103.255 60.2604 106.604 51.8651 107.353 45.2763C108.559 34.6726 103.869 29.1474 94.1718 36.4669C88.6882 40.6077 82.3243 48.9219 86.2647 55.8638C86.7479 56.7163 87.4671 57.3902 88.0214 58.1819C85.538 61.3565 83.1633 64.6082 80.7324 67.8194C74.994 75.4109 69.3455 82.7994 64.0716 90.7482C64.0042 90.8456 64.1128 90.9999 63.7944 90.9633C63.3262 89.8023 62.7382 88.6899 62.3936 87.472C61.0676 82.7751 61.0751 77.2418 61.4347 72.3581C62.5134 57.6582 68.7088 42.5361 78.219 31.1732C89.7707 17.3745 106.54 9.25933 121.62 0.100816C123.972 -0.37416 125.22 0.868087 125.826 3.00751C132.561 26.6873 122.909 55.9491 107.008 74.3717C98.4157 84.3258 86.8827 93.0419 73.8216 95.5507H73.8253Z" fill="#82A93A"/>
<path d="M63.7271 90.6307L39.5713 60.1307L39.6424 59.8952C42.8787 57.7477 43.7065 53.8302 41.7737 50.2739C38.4026 44.0627 33.6606 38.1803 30.2033 31.961C28.6901 29.8946 25.8659 31.7418 26.7049 34.1735L36.4249 49.5919C37.2377 51.6704 34.8517 53.2212 33.6231 51.3944C30.3494 46.8882 27.6937 41.1438 24.3826 36.7554C22.7195 34.5551 20.2211 35.9719 20.738 38.6391L30.5479 54.2889C31.1323 56.27 29.1583 57.7152 27.7986 56.1969L18.0561 40.7988C16.3519 39.4713 14.1906 41.0058 14.8161 43.2224L27.2967 62.9968C29.2669 64.9008 31.5256 65.2539 33.9677 64.1822C34.3273 64.0239 35.1888 63.3094 35.436 63.488L54.5652 97.0002C43.6765 95.9244 33.2523 89.3925 25.2965 81.5087C8.13761 64.4989 -2.46263 38.0098 0.492701 12.4991C0.672493 10.9484 0.968402 8.41515 1.39166 6.9821C1.93478 5.14715 3.60535 4.5301 5.14857 5.37856C17.8501 12.7224 32.0125 18.5236 42.9349 28.9447C54.3592 39.8448 62.3337 55.9818 64.48 72.3908C65.2628 78.3787 65.5887 84.8538 63.7308 90.6347L63.7271 90.6307Z" fill="#81AA39"/>
<path d="M63.8993 16.0472C63.2588 17.3585 63.0753 19.1122 62.2325 20.2327L61.3448 20.0013L60.0301 16.165L56.2282 14.468L56.1982 13.5343L59.9551 11.8333C60.5282 11.1229 61.0039 7.93204 61.7306 7.69658C61.8917 7.64381 62.0752 7.62757 62.2363 7.68847C62.7494 7.87521 63.3375 11.1229 63.9218 11.7724C64.5398 12.4626 66.5775 12.7589 67.3828 13.311C67.7237 13.5465 67.8398 13.9119 67.6637 14.3016C67.4015 14.874 64.5548 15.6534 63.8993 16.0472Z" fill="#FFC668"/>
</svg>
